<svg width="100%" height="100%" viewBox="0 0 929 675" fill="none" xmlns="http://www.w3.org/2000/svg">
<path d="M1093.08 789.453C985.478 965.637 834.837 1073.86 641.157 1114.14C447.476 1154.41 298.988 1066.31 195.692 849.859C92.3953 633.405 116.067 462.254 266.708 336.408C417.348 210.563 567.989 117.437 718.629 57.0306C869.27 -3.37539 996.238 59.5475 1099.53 245.799C1202.83 432.051 1200.68 613.269 1093.08 789.453Z" fill="#D4B106" fill-opacity="0.4"/>
<path d="M927.83 717.34C800.73 809.9 650.328 856.18 476.625 856.18C302.922 856.18 241.49 780.975 292.33 630.565C343.17 480.155 444.85 345.172 597.37 225.615C749.89 106.058 874.872 134.983 972.315 312.39C1069.76 489.797 1054.93 624.78 927.83 717.34Z" fill="#D4B106" fill-opacity="0.6"/>
<path d="M977.55 772.36C980.783 841.267 954.917 875.72 899.95 875.72C844.983 875.72 798.908 864.573 761.725 842.28C724.542 819.987 685.742 785.533 645.325 738.92C604.908 692.307 601.675 641.64 635.625 586.92C669.575 532.2 708.375 487.613 752.025 453.16C795.675 418.707 843.367 413.64 895.1 437.96C946.833 462.28 972.7 506.867 972.7 571.72C972.7 636.573 974.317 703.453 977.55 772.36Z" fill="#D4B106"/>
</svg>
